<?xml version="1.0" standalone="no"?><!DOCTYPE svg PUBLIC "-//W3C//DTD SVG 1.1//EN" "http://www.w3.org/Graphics/SVG/1.1/DTD/svg11.dtd"><svg t="1627030016362" class="icon" viewBox="0 0 1024 1024" version="1.1" xmlns="http://www.w3.org/2000/svg" p-id="1428" xmlns:xlink="http://www.w3.org/1999/xlink" width="16" height="16"><defs><style type="text/css">@font-face { font-family: feedback-iconfont; src: url("//at.alicdn.com/t/font_1031158_1uhr8ri0pk5.eot?#iefix") format("embedded-opentype"), url("//at.alicdn.com/t/font_1031158_1uhr8ri0pk5.woff2") format("woff2"), url("//at.alicdn.com/t/font_1031158_1uhr8ri0pk5.woff") format("woff"), url("//at.alicdn.com/t/font_1031158_1uhr8ri0pk5.ttf") format("truetype"), url("//at.alicdn.com/t/font_1031158_1uhr8ri0pk5.svg#iconfont") format("svg"); }
</style></defs><path d="M931.63318 393.055232v548.776928c0 45.389911-36.777928 82.16784-82.145839 82.16784H174.514659c-38.775924 0-71.267861-26.867948-79.901844-63.005877l-0.329999-46.975908-1.915996-279.755454V82.16784C92.36682 36.777928 129.144748 0 174.514659 0H538.579948c32.717936 0 138.681729 90.345824 232.345546 185.493638 85.463833 86.84383 160.707686 177.685653 160.707686 207.561594z" fill="#DDEAFB" p-id="1429"></path><path d="M931.63318 393.055232v201.029608c0-0.226-0.02-0.453999-0.02-0.699999-6.181988-246.665518-207.107595-258.079496-272.811467-323.785368l112.123781-84.103835c85.463833 86.84183 160.707686 177.683653 160.707686 207.559594z" fill="#CBE2FF" p-id="1430"></path><path d="M538.567948 0H337.538341c0.226 0 0.453999 0.02 0.699998 0.02 246.665518 6.181988 258.079496 207.107595 323.785368 272.811467l84.103836-112.123781C659.283712 75.243853 568.44389 0 538.567948 0z" fill="#CBE2FF" p-id="1431"></path><path d="M931.63118 393.065232v34.753932c0-73.171857-59.333884-132.505741-132.505741-132.505741h-80.647842c-45.367911 0-82.16184-36.793928-82.16184-82.161839V132.505741C636.317757 59.333884 576.981873 0 503.812016 0h34.753932c62.579878 0 122.615761 24.865951 166.865674 69.113865l157.085693 157.085693a236.005539 236.005539 0 0 1 69.113865 166.865674z" fill="#BED8FB" p-id="1432"></path><path d="M444.842131 151.545704H238.454534a15.45197 15.45197 0 1 1 0-30.90394h206.387597a15.45197 15.45197 0 1 1 0 30.90394zM530.559964 237.923535H238.454534a15.45197 15.45197 0 1 1 0-30.903939H530.559964c8.535983 0 15.45197 6.917986 15.45197 15.451969s-6.915986 15.45197-15.45197 15.45197z" fill="#475959" p-id="1433"></path><path d="M278.022457 942.518159c-24.217953 0-43.849914-19.631962-43.849914-43.849914V410.839198c0-24.217953 19.631962-43.849914 43.849914-43.849915s43.849914 19.631962 43.849914 43.849915v487.829047c0 24.217953-19.633962 43.849914-43.849914 43.849914zM511.994 942.518159c-24.217953 0-43.849914-19.631962-43.849914-43.849914V410.839198c0-24.217953 19.631962-43.849914 43.849914-43.849915s43.849914 19.631962 43.849914 43.849915v487.829047c0 24.217953-19.631962 43.849914-43.849914 43.849914zM745.967543 942.518159c-24.217953 0-43.849914-19.631962-43.849914-43.849914V410.839198c0-24.217953 19.631962-43.849914 43.849914-43.849915s43.849914 19.631962 43.849914 43.849915v487.829047c0 24.217953-19.631962 43.849914-43.849914 43.849914z" fill="#475959" p-id="1434"></path><path d="M278.022457 548.544929m-89.069826 0a89.069826 89.069826 0 1 0 178.139652 0 89.069826 89.069826 0 1 0-178.139652 0Z" fill="#78D0B1" p-id="1435"></path><path d="M511.994 783.640469m-89.069826 0a89.069826 89.069826 0 1 0 178.139652 0 89.069826 89.069826 0 1 0-178.139652 0Z" fill="#DD636E" p-id="1436"></path><path d="M745.967543 637.614755m-89.069826 0a89.069826 89.069826 0 1 0 178.139652 0 89.069826 89.069826 0 1 0-178.139652 0Z" fill="#F1D333" p-id="1437"></path><path d="M300.622413 634.70876a88.827827 88.827827 0 0 1-22.601956 2.905995c-49.201904 0-89.069826-39.887922-89.069826-89.069826 0-49.201904 39.867922-89.069826 89.069826-89.069826 7.807985 0 15.38997 1.009998 22.601956 2.905994-38.239925 9.99198-66.44587 44.771913-66.44587 86.163832 0 41.371919 28.205945 76.171851 66.44587 86.163831z" fill="#61AAB7" p-id="1438"></path><path d="M534.597956 869.796301a88.827827 88.827827 0 0 1-22.601956 2.905995c-49.201904 0-89.069826-39.867922-89.069826-89.069827 0-49.181904 39.867922-89.069826 89.069826-89.069826 7.807985 0 15.38997 1.009998 22.601956 2.905995-38.239925 9.99198-66.46787 44.791913-66.46787 86.163831 0 41.391919 28.225945 76.169851 66.46787 86.163832z" fill="#DA4A54" p-id="1439"></path><path d="M768.571499 723.776586a88.827827 88.827827 0 0 1-22.601956 2.905995c-49.201904 0-89.069826-39.887922-89.069826-89.069826 0-49.201904 39.867922-89.069826 89.069826-89.069826 7.807985 0 15.38997 1.009998 22.601956 2.905994-38.239925 9.99198-66.46787 44.771913-66.46787 86.163832 0 41.373919 28.227945 76.171851 66.46787 86.163831z" fill="#EAB14D" p-id="1440"></path></svg>