<?xml version="1.0" standalone="no"?><!DOCTYPE svg PUBLIC "-//W3C//DTD SVG 1.1//EN" "http://www.w3.org/Graphics/SVG/1.1/DTD/svg11.dtd"><svg t="1627028773072" class="icon" viewBox="0 0 1024 1024" version="1.1" xmlns="http://www.w3.org/2000/svg" p-id="2776" xmlns:xlink="http://www.w3.org/1999/xlink" width="16" height="16"><defs><style type="text/css">@font-face { font-family: feedback-iconfont; src: url("//at.alicdn.com/t/font_1031158_1uhr8ri0pk5.eot?#iefix") format("embedded-opentype"), url("//at.alicdn.com/t/font_1031158_1uhr8ri0pk5.woff2") format("woff2"), url("//at.alicdn.com/t/font_1031158_1uhr8ri0pk5.woff") format("woff"), url("//at.alicdn.com/t/font_1031158_1uhr8ri0pk5.ttf") format("truetype"), url("//at.alicdn.com/t/font_1031158_1uhr8ri0pk5.svg#iconfont") format("svg"); }
</style></defs><path d="M64 904V120c0-30.93 25.07-56 56-56h784c30.93 0 56 25.07 56 56v784c0 30.93-25.07 56-56 56H120c-30.93 0-56-25.07-56-56z" fill="#E1F5FF" p-id="2777"></path><path d="M960 260H64V120c0-30.93 25.07-56 56-56h784c30.93 0 56 25.07 56 56v140z" fill="#8C9EFF" p-id="2778"></path><path d="M148 162a28 28 0 1 0 56 0 28 28 0 1 0-56 0z" fill="#FF4343" p-id="2779"></path><path d="M232 162a28 28 0 1 0 56 0 28 28 0 1 0-56 0z" fill="#FFD600" p-id="2780"></path><path d="M316 162a28 28 0 1 0 56 0 28 28 0 1 0-56 0z" fill="#65FF40" p-id="2781"></path><path d="M582 451.33H274c-23.2 0-42 18.8-42 42s18.8 42 42 42h308c23.2 0 42-18.8 42-42 0-23.19-18.8-42-42-42z m168 233.34H274c-23.2 0-42 18.8-42 42s18.8 42 42 42h476c23.2 0 42-18.8 42-42s-18.8-42-42-42z" fill="#313FA0" p-id="2782"></path></svg>