<?xml version="1.0" encoding="UTF-8"?>
<svg width="60px" height="60px" viewBox="0 0 60 60" version="1.1" xmlns="http://www.w3.org/2000/svg" xmlns:xlink="http://www.w3.org/1999/xlink">
    <title>windows_close</title>
    <g id="windows_close" stroke="none" stroke-width="1" fill="none" fill-rule="evenodd">
        <g id="编组-13备份">
            <circle id="椭圆形备份-9" stroke="#FFFFFF" stroke-width="2" cx="30" cy="30" r="29"></circle>
            <path d="M30,9 C30.8284271,9 31.5,9.67157288 31.5,10.5 L31.5,28.5 L49.5,28.5 C50.3284271,28.5 51,29.1715729 51,30 C51,30.8284271 50.3284271,31.5 49.5,31.5 L31.5,31.5 L31.5,49.5 C31.5,50.3284271 30.8284271,51 30,51 C29.1715729,51 28.5,50.3284271 28.5,49.5 L28.5,31.5 L10.5,31.5 C9.67157288,31.5 9,30.8284271 9,30 C9,29.1715729 9.67157288,28.5 10.5,28.5 L28.5,28.5 L28.5,10.5 C28.5,9.67157288 29.1715729,9 30,9 Z" id="形状结合备份" fill="#FFFFFF" transform="translate(30.000000, 30.000000) rotate(45.000000) translate(-30.000000, -30.000000) "></path>
        </g>
    </g>
</svg>