  <svg id="sun-moon" xmlns="http://www.w3.org/2000/svg" width="280" height="280" viewBox="0 0 280 280" fill="none" xmlns="http://www.w3.org/2000/svg">
    <g class="sunshines">
      <path class="line" d="M62.1903 210.138C64.1439 208.184 67.3114 208.184 69.265 210.138V210.138C71.2172 212.09 71.2189 215.254 69.2688 217.209L58.5 228L48.0519 238.426C46.0976 240.376 42.933 240.374 40.9808 238.422V238.422C39.0272 236.468 39.0272 233.301 40.9808 231.347L62.1903 210.138Z" fill="#FFCE54"/>
      <path class="line" d="M134 245C134 242.239 136.239 240 139 240V240C141.761 240 144 242.239 144 245V260V275C144 277.761 141.761 280 139 280V280C136.239 280 134 277.761 134 275V245Z" fill="#F6BB42"/>
      <path class="line" d="M210.038 219.28C208.082 217.324 208.082 214.153 210.038 212.197V212.197C211.989 210.245 215.151 210.24 217.109 212.184L228 223L238.335 233.41C240.279 235.368 240.274 238.529 238.322 240.481V240.481C236.366 242.437 233.195 242.437 231.239 240.481L210.038 219.28Z" fill="#FFCE54"/>
      <path class="line" d="M244.905 144.998C242.143 144.998 239.905 142.759 239.905 139.998V139.998C239.905 137.236 242.143 134.998 244.905 134.998H274.905C277.666 134.998 279.905 137.236 279.905 139.998V139.998C279.905 142.759 277.666 144.998 274.905 144.998H244.905Z" fill="#F6BB42"/>
      <path class="line" d="M232.246 41.3296C234.195 39.3808 237.355 39.3808 239.303 41.3296V41.3296C241.258 43.2838 241.252 46.454 239.29 48.4006L217.964 69.5626C216.045 71.4669 212.951 71.4715 211.026 69.5728V69.5728C209.077 67.6505 209.067 64.5091 211.002 62.5736L232.246 41.3296Z" fill="#FFCE54"/>
      <path class="line" d="M134 5C134 2.23858 136.239 0 139 0V0C141.761 0 144 2.23858 144 5V35C144 37.7614 141.761 40 139 40V40C136.239 40 134 37.7614 134 35V5Z" fill="#F6BB42"/>
      <path class="line" d="M40.6133 47.7004C38.6607 45.7478 38.6607 42.5819 40.6133 40.6293C42.5659 38.6767 45.7317 38.6767 47.6844 40.6293L68.8976 61.8425C70.8502 63.7951 70.8502 66.961 68.8976 68.9136C66.9449 70.8662 63.7791 70.8662 61.8265 68.9136L40.6133 47.7004Z" fill="#FFCE54"/>
      <path class="line" d="M5 144.923C2.23858 144.923 0 142.685 0 139.923V139.923C0 137.162 2.23858 134.923 5 134.923H35C37.7614 134.923 40 137.162 40 139.923V139.923C40 142.685 37.7614 144.923 35 144.923H20H5Z" fill="#F6BB42"/>
    </g>
    <circle class="circle" cx="140.025" cy="140.117" r="91.9789" fill="#FFCE54"/>
    <g class="mask">
      <circle class="background" cx="192.105" cy="97.6382" r="81.073" fill="white"/>
      <rect x="129.59" y="87.1588" width="29.592" height="9.86402" rx="4.93201" fill="#F6BB42"/>
      <rect x="139.453" y="72.3628" width="9.86402" height="39.4561" rx="4.93201" fill="#FFCE54"/>
      <rect x="176.938" y="127.601" width="29.592" height="9.86402" rx="4.93201" fill="#F6BB42"/>
      <rect x="186.802" y="112.805" width="9.86402" height="39.4561" rx="4.93201" fill="#FFCE54"/>
      <circle cx="216.394" cy="57.5668" r="4.93201" fill="#ED5564"/>
      <circle cx="172.006" cy="52.6347" r="4.93201" fill="#AC92EB"/>
      <circle cx="149.319" cy="142.397" r="4.93201" fill="#48CFAD"/>
      <circle cx="201.598" cy="92.091" r="4.93201" fill="#4A89DC"/>
    </g>
  </svg>