<?xml version="1.0" encoding="UTF-8"?>
<svg width="22px" height="22px" viewBox="0 0 22 22" version="1.1" xmlns="http://www.w3.org/2000/svg" xmlns:xlink="http://www.w3.org/1999/xlink">
    <title>guide_finger_1</title>
    <g id="guide_finger_1" stroke="none" stroke-width="1" fill="none" fill-rule="evenodd">
        <g id="编组-13">
            <path d="M6.70102421,15.5158374 C6.70853098,14.0471072 6.9302298,13.0831193 7.36612067,12.6238739 C7.80060553,12.1661098 7,1.56926822 9.24264069,1.01583739 C11.2107112,0.530164002 10.4377576,11.3764799 11.1990033,11.3283756 C12.6007621,11.2397963 15.5344277,11.4689502 20,12.0158374 L20,21.0158374 L7,21.0158374 L2.11934039,15.1008395 C2.6141772,14.0283774 3.13529818,13.5169376 3.68270334,13.5665202 C4.23010849,13.6161029 5.23621545,14.2658753 6.70102421,15.5158374 Z" id="矩形" fill="#FFFFFF"></path>
            <g id="编组-15" transform="translate(0.000000, 0.015837)" fill="#1890FF" fill-rule="nonzero">
                <path d="M10.2420475,3 C10.2420475,2.44771525 9.79433223,2 9.24204748,2 C8.72921164,2 8.30654032,2.38604019 8.24877521,2.88337887 L8.24204748,3 L8.24204748,16 C8.24204748,16.5522847 7.79433223,17 7.24204748,17 C7.00145782,17 6.78071234,16.915037 6.60817846,16.7734785 C6.59035611,16.763172 6.57352175,16.750689 6.55700491,16.7376097 L6.4697841,16.6599033 L4.29289322,14.4830124 C3.90236893,14.0924881 3.26920395,14.0924881 2.87867966,14.4830124 C2.51604996,14.8456421 2.49014784,15.4174875 2.80097329,15.8100052 L2.87867966,15.897226 L7.12132034,20.1398667 C7.51184464,20.530391 7.51184464,21.163556 7.12132034,21.5540803 C6.75869064,21.91671 6.18684525,21.9426121 5.79432759,21.6317866 L5.70710678,21.5540803 L1.46446609,17.3114396 C0.292893219,16.1398667 0.292893219,14.2403718 1.46446609,13.0687989 C2.59419708,11.9390679 4.40078417,11.8987204 5.57886202,12.9477563 L5.70710678,13.0687989 L6.24178644,13.603 L6.24204748,3 C6.24204748,1.34314575 7.58519323,0 9.24204748,0 C10.8397284,0 12.1457084,1.24891996 12.2369548,2.82372721 L12.2420475,3 L12.2417864,10 L18.2420475,10 C19.8397284,10 21.1457084,11.24892 21.2369548,12.8237272 L21.2420475,13 L21.2420475,21 C21.2420475,21.5522847 20.7943322,22 20.2420475,22 C19.7292116,22 19.3065403,21.6139598 19.2487752,21.1166211 L19.2420475,21 L19.2420475,13 C19.2420475,12.4871642 18.8560073,12.0644928 18.3586686,12.0067277 L18.2420475,12 L11.2420475,12 C10.6897627,12 10.2420475,11.5522847 10.2420475,11 L10.2420475,3 Z" id="形状结合"></path>
            </g>
        </g>
    </g>
</svg>