<?xml version="1.0" standalone="no"?><!DOCTYPE svg PUBLIC "-//W3C//DTD SVG 1.1//EN" "http://www.w3.org/Graphics/SVG/1.1/DTD/svg11.dtd"><svg t="1626688078943" class="icon" viewBox="0 0 1024 1024" version="1.1" xmlns="http://www.w3.org/2000/svg" p-id="23572" width="24" height="24" xmlns:xlink="http://www.w3.org/1999/xlink"><defs><style type="text/css"></style></defs><path d="M320 576a128 128 0 0 1 128 128v149.333333c0 38.016-45.952 57.045333-72.832 30.165334l-72.085333-72.064-129.834667 129.813333-3.072 2.88A64 64 0 0 1 82.773333 850.773333l129.813334-129.834666-72.064-72.085334c-26.090667-26.090667-8.917333-70.144 26.88-72.704L170.666667 576zM853.824 79.872A64 64 0 0 1 941.226667 173.226667l-129.813334 129.834666 72.064 72.085334c26.090667 26.090667 8.917333 70.144-26.88 72.704L853.333333 448h-149.333333a128 128 0 0 1-128-128V170.666667c0-38.016 45.952-57.045333 72.832-30.165334l72.085333 72.064 129.834667-129.813333z" p-id="23573" fill="#ffffff"></path></svg>