<?xml version="1.0" standalone="no"?><!DOCTYPE svg PUBLIC "-//W3C//DTD SVG 1.1//EN" "http://www.w3.org/Graphics/SVG/1.1/DTD/svg11.dtd"><svg t="1626689905642" class="icon" viewBox="0 0 1024 1024" version="1.1" xmlns="http://www.w3.org/2000/svg" p-id="23942" xmlns:xlink="http://www.w3.org/1999/xlink" width="24" height="24"><defs><style type="text/css"></style></defs><path d="M363.157333 570.538667a64 64 0 0 1 87.424 93.376l-129.813333 129.834666 72.064 72.085334c26.090667 26.090667 8.917333 70.144-26.88 72.704L362.666667 938.666667h-149.333334a128 128 0 0 1-128-128v-149.333334c0-38.016 45.952-57.045333 72.832-30.165333l72.085334 72.064 129.834666-129.813333zM810.666667 85.333333a128 128 0 0 1 128 128v149.333334c0 38.016-45.952 57.045333-72.832 30.165333l-72.085334-72.064-129.834666 129.813333-3.072 2.88a64 64 0 0 1-87.424-93.376l129.813333-129.834666-72.064-72.085334c-26.090667-26.090667-8.917333-70.144 26.88-72.704L661.333333 85.333333z" p-id="23943" fill="#ffffff"></path></svg>